<svg width="60" height="79" viewBox="0 0 60 79" fill="none" xmlns="http://www.w3.org/2000/svg">
<path fill-rule="evenodd" clip-rule="evenodd" d="M57.0211 17.2093C58.8436 21.1259 59.8114 25.3856 59.8602 29.7053C59.9662 33.8032 59.4249 37.8921 58.2567 41.8214C57.2531 45.1165 55.914 48.2998 54.2604 51.3214C52.0285 55.4245 49.4169 59.3094 46.4601 62.9252C43.0282 67.1295 39.2755 71.0614 35.236 74.6858C33.6989 76.0782 32.1015 77.3983 30.4801 78.6943L30.464 78.7074C30.1696 78.9429 29.9235 79.1399 29.4855 78.7848C26.8815 76.691 24.3737 74.4969 21.9625 72.2022C19.8107 70.1467 17.7611 67.9827 15.796 65.7523C13.0961 62.7021 10.62 59.4607 8.38759 56.0534C6.70302 53.4896 5.21596 50.8014 3.9391 48.0121C1.84682 43.5878 0.550919 38.8292 0.111222 33.955C0.00892666 32.8518 0.00892666 31.7548 0.00892666 30.6516C-0.106552 25.9279 0.899796 21.2442 2.94521 16.9847C4.99037 12.7252 8.01674 9.01144 11.7753 6.14807C15.7033 3.11492 20.3368 1.12799 25.2418 0.373286C30.1134 -0.403356 35.1017 0.0360664 39.7626 1.65246C44.4235 3.26882 48.6127 6.01211 51.9577 9.63824C54.0289 11.8831 55.7374 14.4376 57.0211 17.2093ZM19.5211 52.5089C22.3966 53.8954 27.2912 54.8478 30.5163 54.8478C34.9364 54.7564 39.2448 53.4425 42.9635 51.0516C46.6823 48.6607 49.6662 45.2864 51.5839 41.303C53.8634 36.6867 54.5705 31.4515 53.5973 26.3959C52.8187 21.9982 50.7838 17.9199 47.7379 14.6535C45.5241 12.1765 42.8141 10.193 39.7838 8.83148C36.7533 7.47003 33.4706 6.76113 30.1486 6.75085C26.5099 6.67965 22.9064 7.47512 19.6359 9.07159C14.2562 11.6012 10.0133 16.046 7.73671 21.5374C6.19374 25.2105 5.59071 29.2103 5.98207 33.175C6.37367 37.1397 7.74745 40.9443 9.97914 44.2447C12.3624 47.8042 15.6579 50.6584 19.5211 52.5089ZM17.2186 41.2608C16.5236 41.7884 15.7177 42.1511 14.8617 42.3217C15.3993 41.9483 15.8788 41.4974 16.2843 40.9835C16.7941 40.367 17.1864 39.6621 17.4418 38.9039C18.1774 35.8305 19.3466 32.8774 20.9137 30.1332L20.9855 30.0093C22.5468 27.3137 24.1098 24.615 27.3214 22.4717C29.3165 21.1893 31.5419 20.3069 33.8739 19.8737C37.5534 19.0485 41.37 19.0485 45.0497 19.8737C44.4022 20.0353 43.7894 20.3131 43.2413 20.6935C42.5812 21.1703 42.0236 21.7751 41.6017 22.4717C40.5783 23.9793 39.6366 25.5408 38.7807 27.1494C38.3832 27.9751 38.0788 28.6308 37.8317 29.1717C37.453 30.001 37.2094 30.5606 36.9723 31.0495C36.3273 32.3937 33.9823 37.2763 29.2623 39.3861C26.643 40.4831 23.7426 40.7196 20.9801 40.0612C22.1989 35.9023 24.4572 32.1226 27.5421 29.0788C30.6271 26.035 34.4369 23.8274 38.6117 22.6646C32.3126 23.171 28.8466 25.7208 27.3878 27.0047C25.3554 28.8241 23.6454 30.9743 22.3302 33.3642C21.631 34.6904 20.6364 36.3541 18.6171 39.6755C18.2555 40.2877 17.7809 40.8256 17.2186 41.2608Z" fill="white"/>
</svg>
