<svg width="220" height="196" viewBox="0 0 220 196" fill="none" xmlns="http://www.w3.org/2000/svg">
<path d="M88.9653 56.3788C90.1075 56.1505 91.1834 55.6674 92.113 54.9656C92.8463 54.3809 93.4644 53.6647 93.9357 52.8538C96.6256 48.4294 97.9505 46.2133 98.8819 44.4467C100.634 41.2632 102.911 38.399 105.619 35.9755C107.562 34.2652 112.179 30.8686 120.57 30.1941C115.021 31.7526 109.959 34.6974 105.861 38.7514C101.764 42.8054 98.7652 47.8352 97.1475 53.3677C100.83 54.2446 104.696 53.9297 108.188 52.4683C114.467 49.658 117.591 43.154 118.45 41.3634C118.972 40.2874 119.518 38.9545 120.859 36.1682C121.987 34.0254 123.231 31.9454 124.585 29.9372C125.141 29.0075 125.881 28.2013 126.761 27.5685C127.491 27.0617 128.307 26.6917 129.17 26.4764C124.268 25.3772 119.184 25.3772 114.283 26.4764C111.177 27.0549 108.213 28.2302 105.555 29.9372C101.162 32.8359 99.0746 36.4974 96.9869 40.1429C94.8991 43.7973 93.3443 47.7315 92.3699 51.826C91.7678 53.6773 90.5709 55.2778 88.9653 56.3788Z" fill="white"/>
<path d="M148.907 39.5728C148.842 33.8188 147.552 28.1446 145.125 22.9274C143.415 19.2352 141.139 15.8325 138.38 12.8421C133.922 8.00816 128.338 4.35172 122.124 2.19844C115.911 0.0451692 109.262 -0.538094 102.768 0.500599C96.235 1.50762 90.0635 4.15415 84.8302 8.19298C79.8293 12.0106 75.8044 16.9591 73.0855 22.6328C70.3666 28.3065 69.0311 34.5439 69.1885 40.8334C69.1885 42.3028 69.1885 43.7642 69.325 45.2337C69.907 51.7272 71.6332 58.0666 74.4238 63.9588C76.1188 67.6757 78.0973 71.2568 80.3416 74.6703C83.3155 79.2111 86.6164 83.5291 90.2181 87.59C92.8358 90.5609 95.5578 93.4436 98.4244 96.1817C101.636 99.2383 104.977 102.161 108.445 104.95C109.04 105.432 109.369 105.151 109.778 104.83C111.93 103.103 114.058 101.345 116.106 99.4899C121.487 94.66 126.488 89.4226 131.065 83.8241C135.016 79.0154 138.511 73.8487 141.503 68.3911C143.705 64.3648 145.492 60.1247 146.835 55.7364C148.368 50.4902 149.067 45.0359 148.907 39.5728ZM109.826 73.0644C105.523 73.0644 99.0105 71.7957 95.1724 69.9489C90.03 67.4922 85.6426 63.6983 82.4695 58.9643C79.4682 54.5839 77.6357 49.5093 77.1459 44.2219C76.5819 38.9308 77.3865 33.5835 79.4825 28.6926C82.5152 21.3778 88.167 15.4569 95.333 12.0874C99.692 9.9595 104.495 8.89983 109.345 8.99595C113.769 9.01076 118.14 9.9556 122.175 11.7691C126.21 13.5827 129.819 16.2244 132.767 19.5228C136.824 23.8738 139.535 29.3064 140.572 35.1645C141.837 41.959 140.872 48.9802 137.822 55.1819C134.772 61.3835 129.799 66.4336 123.645 69.5795C119.367 71.7837 114.639 72.976 109.826 73.0644Z" fill="white"/>
<path d="M32.7098 123.523V151.707H25.8444V134.804L19.5412 151.707H14.0007L7.65733 134.764V151.707H0.791992V123.523H8.90192L16.8513 143.035L24.6801 123.523H32.7098Z" fill="white"/>
<path d="M43.6864 150.149C41.499 148.941 39.6832 147.158 38.435 144.994C37.1561 142.723 36.4841 140.161 36.4841 137.554C36.4841 134.948 37.1561 132.386 38.435 130.115C39.6884 127.958 41.5033 126.182 43.6864 124.976C45.9239 123.764 48.4285 123.129 50.9733 123.129C53.5181 123.129 56.0227 123.764 58.2602 124.976C60.4391 126.177 62.245 127.955 63.4795 130.115C64.7385 132.392 65.3989 134.952 65.3989 137.554C65.3989 140.157 64.7385 142.716 63.4795 144.994C62.241 147.155 60.4365 148.937 58.2602 150.149C56.0258 151.362 53.5237 151.997 50.9813 151.997C48.4389 151.997 45.9369 151.362 43.7025 150.149H43.6864ZM56.3732 143.484C57.6898 141.78 58.404 139.688 58.404 137.534C58.404 135.381 57.6898 133.288 56.3732 131.584C55.6901 130.842 54.8535 130.258 53.9216 129.873C52.9897 129.487 51.9849 129.31 50.9773 129.352C49.9645 129.308 48.954 129.482 48.0146 129.863C47.0752 130.244 46.2289 130.823 45.5332 131.56C44.2205 133.275 43.5092 135.375 43.5092 137.534C43.5092 139.694 44.2205 141.793 45.5332 143.508C46.2254 144.251 47.0708 144.835 48.0108 145.219C48.9507 145.603 49.9629 145.778 50.9773 145.733C51.9871 145.775 52.9938 145.595 53.9263 145.205C54.8587 144.815 55.6941 144.225 56.3732 143.476V143.484Z" fill="white"/>
<path d="M101.162 123.523V151.707H94.2568V134.804L87.9535 151.707H82.4131L76.0697 134.764V151.707H69.2043V123.523H77.3143L85.2235 143.035L93.0524 123.523H101.162Z" fill="white"/>
<path d="M127.058 139.71C128.174 141.191 128.692 143.037 128.509 144.882C128.326 146.726 127.456 148.435 126.07 149.667C124.424 151.04 122.136 151.731 119.189 151.731H106.061V123.547H118.747C121.611 123.547 123.852 124.202 125.468 125.514C126.26 126.153 126.89 126.969 127.309 127.897C127.727 128.824 127.922 129.837 127.877 130.854C127.933 132.342 127.471 133.804 126.568 134.989C125.684 136.1 124.469 136.902 123.099 137.277C124.673 137.575 126.082 138.441 127.058 139.71ZM112.926 134.893H117.422C118.344 134.951 119.257 134.69 120.008 134.154C120.317 133.882 120.56 133.544 120.717 133.164C120.875 132.783 120.942 132.372 120.915 131.962C120.941 131.549 120.873 131.136 120.716 130.753C120.559 130.371 120.317 130.029 120.008 129.754C119.264 129.201 118.347 128.93 117.422 128.991H112.926V134.893ZM120.65 145.331C120.972 145.051 121.225 144.7 121.39 144.306C121.554 143.911 121.625 143.485 121.598 143.059C121.62 142.621 121.543 142.184 121.371 141.781C121.2 141.378 120.94 141.018 120.61 140.73C119.841 140.129 118.879 139.83 117.904 139.887H112.926V146.134H118.025C118.96 146.196 119.888 145.932 120.65 145.387V145.331Z" fill="white"/>
<path d="M150.063 146.728H139.544L137.858 151.707H130.671L140.869 123.523H148.818L159.016 151.707H151.749L150.063 146.728ZM148.296 141.429L144.803 131.111L141.351 141.429H148.296Z" fill="white"/>
<path d="M178.544 144.761C179.601 144.129 180.441 143.191 180.953 142.071H188.501C187.87 144.632 186.468 146.939 184.486 148.679C182.444 150.397 179.936 151.467 177.283 151.755V153.361C178.594 153.337 179.876 153.74 180.937 154.509C181.469 154.901 181.895 155.42 182.175 156.019C182.456 156.618 182.582 157.278 182.543 157.938C182.581 158.609 182.451 159.279 182.163 159.886C181.876 160.493 181.44 161.019 180.897 161.414C179.745 162.218 178.366 162.632 176.962 162.595H170.779V158.821H176.039C176.454 158.846 176.869 158.763 177.243 158.58C177.377 158.495 177.485 158.376 177.556 158.234C177.627 158.093 177.657 157.935 177.645 157.777C177.665 157.618 177.638 157.457 177.567 157.314C177.495 157.171 177.383 157.053 177.243 156.974C176.867 156.8 176.453 156.723 176.039 156.749H173.188V151.755C170.887 151.539 168.678 150.746 166.765 149.45C164.924 148.182 163.444 146.459 162.469 144.448C161.43 142.296 160.907 139.932 160.943 137.542C160.896 134.947 161.518 132.384 162.75 130.099C163.91 127.956 165.657 126.188 167.784 125C170.026 123.758 172.554 123.127 175.115 123.169C178.193 123.085 181.212 124.017 183.707 125.819C186.097 127.594 187.788 130.152 188.485 133.046H180.937C180.425 131.925 179.585 130.987 178.528 130.356C177.466 129.73 176.252 129.411 175.019 129.432C174.053 129.4 173.091 129.58 172.203 129.962C171.314 130.344 170.521 130.917 169.88 131.641C168.603 133.343 167.913 135.414 167.913 137.542C167.913 139.671 168.603 141.741 169.88 143.444C170.521 144.168 171.314 144.741 172.203 145.123C173.091 145.504 174.053 145.685 175.019 145.652C176.254 145.687 177.474 145.378 178.544 144.761Z" fill="white"/>
<path d="M210.245 146.728H199.726L198.04 151.707H190.813L201.011 123.523H208.96L219.158 151.707H211.971L210.245 146.728ZM208.478 141.429L204.985 131.111L201.533 141.429H208.478Z" fill="white"/>
<path d="M57.16 189.767H66.1532V195.067H50.2947V166.883H57.16V189.767Z" fill="white"/>
<path d="M76.3106 166.883V195.067H69.4453V166.883H76.3106Z" fill="white"/>
<path d="M113.207 166.883V195.067H106.342V178.164L100.038 195.067H94.4978L88.1544 178.124V195.067H81.2891V166.883H89.399L97.3082 186.395L105.137 166.883H113.207Z" fill="white"/>
<path d="M138.5 180.437C137.695 181.841 136.494 182.977 135.047 183.705C133.252 184.588 131.266 185.016 129.266 184.949H125.01V195.067H118.145V166.883H129.266C131.231 166.821 133.183 167.22 134.967 168.047C136.428 168.741 137.646 169.861 138.46 171.259C139.256 172.694 139.657 174.315 139.624 175.956C139.639 177.521 139.252 179.064 138.5 180.437ZM131.675 178.566C132.297 177.838 132.639 176.913 132.639 175.956C132.639 174.999 132.297 174.074 131.675 173.346C130.855 172.669 129.804 172.338 128.744 172.423H125.01V179.489H128.744C129.804 179.574 130.855 179.243 131.675 178.566Z" fill="white"/>
<path d="M160.742 190.088H150.223L148.537 195.067H141.351L151.548 166.883H159.498L169.695 195.067H162.469L160.742 190.088ZM158.976 184.789L155.483 174.471L152.03 184.789H158.976Z" fill="white"/>
</svg>
