<svg width="400" height="132" viewBox="0 0 400 132" fill="none" xmlns="http://www.w3.org/2000/svg">
<path d="M24.6548 70.2093C26.0746 69.9262 27.4115 69.3244 28.5648 68.4493C29.4976 67.7273 30.2848 66.8348 30.8848 65.8193C34.2348 60.3093 35.8848 57.5493 37.0448 55.3493C39.2263 51.3845 42.063 47.8175 45.4348 44.7993C47.8548 42.6693 53.6048 38.4393 64.0548 37.5993C57.1289 39.5283 50.8088 43.1905 45.691 48.24C40.5733 53.2895 36.8266 59.5599 34.8048 66.4593C39.3878 67.5513 44.1992 67.1591 48.5448 65.3393C56.3748 61.8393 60.2648 53.7393 61.3348 51.5093C61.9848 50.1693 62.6648 48.5093 64.3348 45.0393C65.7547 42.3707 67.317 39.7803 69.0148 37.2793C69.7146 36.1236 70.6396 35.1204 71.7348 34.3293C72.6443 33.6982 73.6608 33.2374 74.7348 32.9693C68.6306 31.6003 62.299 31.6003 56.1948 32.9693C52.3264 33.688 48.6346 35.1518 45.3248 37.2793C39.9148 40.8893 37.3248 45.4493 34.6948 49.9893C32.0948 54.5417 30.1554 59.4408 28.9348 64.5393C28.5114 65.7971 27.8606 66.9665 27.0148 67.9893C26.342 68.8417 25.5467 69.5898 24.6548 70.2093Z" fill="white"/>
<path d="M99.3048 49.2793C99.2238 42.1133 97.6182 35.0467 94.5948 28.5493C92.4653 23.9511 89.6312 19.7134 86.1948 15.9893C80.6458 9.97373 73.6962 5.42282 65.964 2.74132C58.2318 0.0598226 49.9567 -0.669142 41.8748 0.619264C33.7376 1.87129 26.0511 5.16746 19.5348 10.1993C13.2994 14.9495 8.27909 21.1104 4.88592 28.1766C1.49275 35.2429 -0.176622 43.0129 0.0147855 50.8493C0.0147855 52.6793 0.0147855 54.4993 0.184785 56.3293C0.914195 64.4154 3.06377 72.3096 6.53479 79.6493C8.65307 84.2766 11.1202 88.7361 13.9148 92.9893C17.6182 98.6418 21.7256 104.019 26.2048 109.079C29.4648 112.779 32.8648 116.369 36.4348 119.779C40.4348 123.586 44.5948 127.226 48.9148 130.699C49.6548 131.299 50.0648 130.949 50.5648 130.549C53.2548 128.399 55.9048 126.209 58.4548 123.899C65.1562 117.887 71.3815 111.364 77.0748 104.389C81.9799 98.3908 86.3121 91.946 90.0148 85.1393C92.7582 80.1266 94.9798 74.8456 96.6448 69.3793C98.5828 62.8608 99.4805 56.0774 99.3048 49.2793ZM50.6248 90.9893C45.2748 90.9893 37.1548 89.4093 32.3848 87.1093C25.9756 84.0393 20.5086 79.3044 16.5548 73.3993C12.8527 67.9242 10.5738 61.6126 9.92427 55.0354C9.27475 48.4581 10.2751 41.8227 12.8348 35.7293C16.6118 26.6194 23.6504 19.2456 32.5748 15.0493C38.0005 12.4008 43.9784 11.0812 50.0148 11.1993C55.526 11.2163 60.9719 12.3923 65.9991 14.6509C71.0262 16.9095 75.5221 20.2002 79.1948 24.3093C84.2476 29.728 87.6235 36.4937 88.9148 43.7893C90.5295 52.1762 89.3565 60.8612 85.5748 68.5193C82.3932 75.1275 77.4433 80.7253 71.2741 84.6916C65.1049 88.6579 57.9575 90.8377 50.6248 90.9893Z" fill="white"/>
<path d="M167.425 21.4293V56.5293H158.875V35.5293L151.025 56.5293H144.125L136.225 35.4293V56.5293H127.675V21.4293H137.775L147.625 45.7293L157.375 21.4293H167.425Z" fill="white"/>
<path d="M181.095 54.5793C178.372 53.0682 176.112 50.8457 174.555 48.1493C172.918 45.3372 172.078 42.1326 172.125 38.8793C172.074 35.6318 172.915 32.4326 174.555 29.6293C176.113 26.9415 178.374 24.7289 181.095 23.2293C183.881 21.7195 187 20.9288 190.17 20.9288C193.339 20.9288 196.458 21.7195 199.245 23.2293C201.96 24.7223 204.21 26.9373 205.745 29.6293C207.357 32.4421 208.179 35.6379 208.125 38.8793C208.172 42.1288 207.343 45.331 205.725 48.1493C204.18 50.8413 201.933 53.0636 199.225 54.5793C196.442 56.0899 193.326 56.8812 190.16 56.8812C186.993 56.8812 183.877 56.0899 181.095 54.5793ZM196.895 46.2793C198.649 44.2243 199.553 41.578 199.425 38.8793C199.564 36.17 198.659 33.5105 196.895 31.4493C196.043 30.5266 195.001 29.8007 193.841 29.3223C192.68 28.8439 191.429 28.6245 190.175 28.6793C188.913 28.6212 187.654 28.8369 186.483 29.3116C185.313 29.7863 184.259 30.5088 183.395 31.4293C181.63 33.4971 180.727 36.1646 180.875 38.8793C180.737 41.5836 181.639 44.2381 183.395 46.2993C184.256 47.2258 185.309 47.9542 186.479 48.4342C187.65 48.9141 188.911 49.1343 190.175 49.0793C191.431 49.1311 192.684 48.9072 193.845 48.4235C195.006 47.9398 196.047 47.208 196.895 46.2793Z" fill="white"/>
<path d="M252.625 21.4293V56.5293H244.075V35.5293L236.225 56.5293H229.325L221.425 35.4293V56.5293H212.875V21.4293H223.015L232.865 45.7293L242.615 21.4293H252.625Z" fill="white"/>
<path d="M284.925 41.5493C286.324 43.3966 286.975 45.704 286.747 48.0103C286.519 50.3166 285.429 52.4519 283.695 53.9893C281.645 55.7093 278.795 56.5693 275.125 56.5693H258.775V21.4293H274.575C278.145 21.4293 280.935 22.2393 282.945 23.8793C283.931 24.6754 284.716 25.6919 285.237 26.847C285.758 28.002 286.001 29.2634 285.945 30.5293C286.015 32.3831 285.439 34.2036 284.315 35.6793C283.213 37.0538 281.71 38.0502 280.015 38.5293C281.964 38.9051 283.71 39.9788 284.925 41.5493ZM267.325 35.6293H272.925C274.074 35.7057 275.213 35.3766 276.145 34.6993C276.528 34.3645 276.83 33.9459 277.026 33.476C277.222 33.0061 277.307 32.4974 277.275 31.9893C277.307 31.4753 277.222 30.9607 277.026 30.4843C276.831 30.0079 276.529 29.5822 276.145 29.2393C275.22 28.547 274.077 28.2099 272.925 28.2893H267.325V35.6293ZM276.945 48.6293C277.346 48.282 277.661 47.8468 277.865 47.3576C278.07 46.8684 278.159 46.3385 278.125 45.8093C278.153 45.2643 278.057 44.72 277.844 44.2176C277.631 43.7152 277.306 43.2679 276.895 42.9093C275.93 42.1791 274.732 41.8238 273.525 41.9093H267.325V49.6593H273.625C274.816 49.7245 275.992 49.3668 276.945 48.6493V48.6293Z" fill="white"/>
<path d="M313.575 50.3293H300.475L298.375 56.5293H289.425L302.125 21.4293H312.015L324.715 56.5293H315.715L313.575 50.3293ZM311.375 43.7293L307.015 30.8793L302.715 43.7293H311.375Z" fill="white"/>
<path d="M349.015 47.8793C350.329 47.0898 351.375 45.9223 352.015 44.5293H361.415C360.626 47.7154 358.881 50.5838 356.415 52.7493C353.893 54.9001 350.788 56.2509 347.495 56.6293V58.6293C349.108 58.585 350.693 59.0619 352.015 59.9893C352.636 60.5241 353.132 61.1881 353.469 61.9349C353.806 62.6817 353.976 63.4932 353.966 64.3126C353.957 65.1319 353.768 65.9392 353.414 66.678C353.059 67.4167 352.548 68.0691 351.915 68.5893C350.481 69.5928 348.764 70.1114 347.015 70.0693H339.315V65.3693H345.865C346.382 65.4006 346.899 65.2972 347.365 65.0693C347.531 64.9633 347.665 64.8143 347.753 64.6383C347.841 64.4622 347.879 64.2656 347.865 64.0693C347.89 63.8718 347.857 63.671 347.768 63.4929C347.678 63.3147 347.538 63.1672 347.365 63.0693C346.893 62.8613 346.379 62.7687 345.865 62.7993H342.315V56.5993C339.467 56.3145 336.734 55.3247 334.365 53.7193C332.077 52.1521 330.234 50.0196 329.015 47.5293C327.722 44.8492 327.071 41.9046 327.115 38.9293C327.058 35.6943 327.832 32.4989 329.365 29.6493C330.814 26.9838 332.988 24.7824 335.635 23.2993C338.426 21.7408 341.578 20.9441 344.775 20.9893C348.607 20.8848 352.367 22.0444 355.475 24.2893C358.469 26.4917 360.594 29.6778 361.475 33.2893H352.015C351.372 31.9109 350.326 30.7601 349.015 29.9893C347.692 29.2101 346.18 28.8121 344.645 28.8393C343.441 28.7956 342.242 29.0196 341.136 29.4951C340.029 29.9707 339.042 30.6859 338.245 31.5893C336.534 33.6448 335.66 36.2686 335.795 38.9393C335.663 41.6096 336.537 44.2323 338.245 46.2893C339.043 47.1905 340.031 47.9042 341.137 48.3796C342.244 48.8549 343.441 49.0802 344.645 49.0393C346.18 49.0588 347.691 48.6576 349.015 47.8793Z" fill="white"/>
<path d="M388.525 50.3293H375.425L373.325 56.5293H364.375L377.075 21.4293H387.015L399.715 56.5293H390.665L388.525 50.3293ZM386.325 43.7293L382.015 30.8793L377.715 43.7293H386.325Z" fill="white"/>
<path d="M136.225 103.929H147.425V110.529H127.675V75.4293H136.225V103.929Z" fill="white"/>
<path d="M160.075 75.4293V110.529H151.525V75.4293H160.075Z" fill="white"/>
<path d="M206.015 75.4293V110.529H197.465V89.4793L189.615 110.529H182.715L174.815 89.4293V110.529H166.265V75.4293H176.365L186.215 99.7293L196.015 75.4293H206.015Z" fill="white"/>
<path d="M237.525 92.2993C236.519 94.0487 235.025 95.4667 233.225 96.3793C230.989 97.48 228.516 98.0123 226.025 97.9293H220.725V110.529H212.175V75.4293H226.015C228.462 75.3527 230.893 75.8493 233.115 76.8793C234.935 77.744 236.451 79.1382 237.465 80.8793C238.456 82.6673 238.956 84.6856 238.915 86.7293C238.938 88.6746 238.459 90.5929 237.525 92.2993ZM229.015 89.9893C229.789 89.0836 230.215 87.9311 230.215 86.7393C230.215 85.5475 229.789 84.395 229.015 83.4893C227.994 82.6458 226.685 82.2333 225.365 82.3393H220.715V91.1393H225.365C226.684 91.2401 227.992 90.8282 229.015 89.9893Z" fill="white"/>
<path d="M265.225 104.329H252.125L250.025 110.529H241.075L253.775 75.4293H263.675L276.375 110.529H267.325L265.225 104.329ZM263.025 97.7293L258.675 84.8793L254.375 97.7293H263.025Z" fill="white"/>
</svg>
