<svg width="134" height="39" viewBox="0 0 134 39" fill="none" xmlns="http://www.w3.org/2000/svg">
<path d="M59.1337 2.71252L58.8962 4.80127C57.7037 4.72877 56.9349 4.71002 55.3399 4.71002C53.5062 4.71002 52.9574 5.64502 52.9574 8.83502C52.9574 12.025 53.5062 12.96 55.3399 12.96C57.0262 12.96 58.0337 12.9413 59.1524 12.795L59.3912 14.8663C58.2174 15.2325 57.1549 15.38 55.3399 15.38C51.4349 15.38 50.0237 13.6563 50.0237 8.83502C50.0237 4.01377 51.4349 2.29127 55.3399 2.29127C57.1224 2.29002 57.9787 2.41877 59.1337 2.71252Z" fill="#353535"/>
<path d="M69.93 10.7737C69.93 14.2387 68.6649 15.5237 65.2924 15.5237C61.9199 15.5237 60.6375 14.2412 60.6375 10.7737C60.6375 7.30624 61.9012 5.98999 65.2924 5.98999C68.6837 5.98999 69.93 7.29124 69.93 10.7737ZM63.4775 10.7737C63.4775 12.9375 63.8624 13.4875 65.2924 13.4875C66.6862 13.4875 67.0887 12.9375 67.0887 10.7737C67.0887 8.57374 66.6862 8.02374 65.2924 8.02374C63.8624 8.02499 63.4775 8.57249 63.4775 10.7737V10.7737Z" fill="#353535"/>
<path d="M80.5801 8.50124V15.2825H77.8851V9.34374C77.8851 8.51999 77.6651 8.28124 77.0101 8.28124C76.2601 8.28124 75.5626 8.55624 74.4814 9.10624L74.4989 15.2825H71.7864V6.24624H73.9864L74.1876 7.58499C75.4376 6.55874 76.7539 5.98999 78.0551 5.98999C79.7001 5.98999 80.5801 6.86999 80.5801 8.50124Z" fill="#353535"/>
<path d="M86.2801 12.3325C86.2801 13.01 86.5301 13.2488 87.2701 13.2488H88.4251L88.7176 15.1363C88.0401 15.375 86.8113 15.5038 86.1701 15.5038C84.5451 15.5038 83.5863 14.55 83.5863 12.9V8.06128H81.9976V6.33878L83.5926 6.24628V3.71753H86.2863V6.24628H88.7976V8.06128H86.2801V12.3325Z" fill="#353535"/>
<path d="M98.5424 9.30749V15.2825H96.3974L96.1224 13.9075C95.4812 14.6575 94.3812 15.5025 92.7862 15.5025C91.0999 15.5025 89.8362 14.585 89.8362 12.8987V11.9825C89.8362 10.535 90.8799 9.69124 92.6037 9.69124H95.8299V9.28874C95.8112 8.37249 95.4999 8.11624 94.3449 8.11624C93.4837 8.11624 91.9799 8.17124 90.5324 8.26249L90.2749 6.42999C91.8324 6.16771 93.4071 6.02065 94.9862 5.98999C97.3149 5.98999 98.5424 6.75999 98.5424 9.30749ZM92.5124 12.5337C92.5124 13.175 92.8412 13.4687 93.5749 13.4687C94.1999 13.4687 95.0599 13.175 95.8249 12.5937V11.3225H93.3912C92.7312 11.3412 92.5162 11.6712 92.5162 12.1837L92.5124 12.5337Z" fill="#353535"/>
<path d="M102.702 2.25C103.235 2.25 103.491 2.525 103.491 3.03875V4.02875C103.491 4.56 103.235 4.81625 102.702 4.81625H101.497C100.966 4.81625 100.71 4.56 100.71 4.02875V3.03875C100.71 2.525 100.966 2.25 101.497 2.25H102.702ZM100.76 15.2825V6.24625H103.455V15.2825H100.76Z" fill="#353535"/>
<path d="M114.544 8.50124V15.2825H111.849V9.34374C111.849 8.51999 111.629 8.28124 110.974 8.28124C110.224 8.28124 109.525 8.55624 108.444 9.10624L108.463 15.2825H105.748V6.24624H107.948L108.149 7.58499C109.399 6.55874 110.715 5.98999 112.017 5.98999C113.664 5.98999 114.544 6.86999 114.544 8.50124Z" fill="#353535"/>
<path d="M124.735 13.1387L124.997 14.8224C123.935 15.3362 122.34 15.5012 121.057 15.5012C117.629 15.5012 116.346 14.1074 116.346 10.7712C116.346 7.19743 117.666 5.98743 120.946 5.98743C124.026 5.98743 125.217 7.06868 125.236 9.13993C125.236 10.7899 124.447 11.6699 122.486 11.6699H119.224C119.407 13.0449 119.994 13.3374 121.369 13.3374C122.187 13.3399 123.506 13.2674 124.735 13.1387ZM119.162 10.0412H121.729C122.462 10.0412 122.572 9.61868 122.572 9.10618C122.572 8.26243 122.205 7.96993 121.032 7.96993C119.676 7.94743 119.236 8.33618 119.162 10.0412Z" fill="#353535"/>
<path d="M133.204 8.50124H132.47C131.682 8.50124 130.93 8.70249 129.703 9.12624V15.285H126.989V6.24624H129.098L129.337 7.58499C130.545 6.55874 131.829 5.98999 133.002 5.98999H133.479L133.204 8.50124Z" fill="#353535"/>
<path d="M59.865 26.3637C59.865 31.4287 58.5038 33.055 54.7063 33.055C52.8913 33.055 51.38 32.9787 50 32.885V19.8437C51.375 19.75 52.875 19.6737 54.7063 19.6737C58.5038 19.6737 59.865 21.3 59.865 26.3637ZM57.865 26.3637C57.865 22.5662 57.0913 21.3187 54.71 21.3187C53.6325 21.3187 52.725 21.3375 51.8938 21.3562V31.3725C52.7063 31.3912 53.6513 31.41 54.71 31.41C57.0875 31.41 57.8613 30.1625 57.8613 26.3637H57.865Z" fill="#353535"/>
<path d="M63.8149 19.7312C64.1736 19.7312 64.3436 19.9387 64.3436 20.26V21.3225C64.3436 21.6812 64.1736 21.87 63.8149 21.87H62.9399C62.5811 21.87 62.4111 21.6812 62.4111 21.3225V20.26C62.4111 19.9387 62.5811 19.7312 62.9399 19.7312H63.8149ZM62.4724 32.885V23.6625H64.2874V32.885H62.4724Z" fill="#353535"/>
<path d="M74.5863 24.7775C74.8138 25.1925 74.9088 25.7212 74.9088 26.3837C74.9088 28.4437 73.9088 29.3312 70.9013 29.3312C70.2871 29.3378 69.6736 29.2872 69.0688 29.18C68.7288 29.71 68.785 30.4837 69.655 30.6162L73.0563 31.1462C74.8325 31.41 75.475 32.2225 75.475 33.7712C75.475 35.9637 74.3788 36.6625 71.015 36.6625C67.6138 36.6625 66.4988 35.9637 66.4988 33.8275C66.4988 32.7887 66.9513 32.26 67.9725 31.7112C67.065 30.9737 67.2738 29.4612 68.105 28.8362C67.23 28.3825 66.895 27.5862 66.895 26.3987C66.895 24.2625 67.8775 23.4125 70.92 23.4125C71.8275 23.4125 72.565 23.4875 73.1313 23.6625H75.985L75.8913 24.645L74.5863 24.7775ZM72.1113 32.4875L69.1438 32.1125C68.5775 32.585 68.275 33 68.275 33.68C68.275 34.93 68.8038 35.1162 70.9963 35.1162C73.15 35.1162 73.68 34.8662 73.68 33.68C73.68 32.79 73.3963 32.6762 72.1113 32.4875V32.4875ZM73.2075 26.3837C73.2075 25.2112 72.64 24.815 70.9013 24.815C69.1438 24.815 68.5575 25.2112 68.5575 26.3837C68.5575 27.5175 69.1438 27.9512 70.9013 27.9512C72.64 27.9475 73.2075 27.5175 73.2075 26.3837V26.3837Z" fill="#353535"/>
<path d="M79.2163 19.7312C79.575 19.7312 79.7463 19.9387 79.7463 20.26V21.3225C79.7463 21.6812 79.575 21.87 79.2163 21.87H78.3413C77.9825 21.87 77.8113 21.6812 77.8113 21.3225V20.26C77.8113 19.9387 77.9825 19.7312 78.3413 19.7312H79.2163ZM77.8725 32.885V23.6625H79.6863V32.885H77.8725Z" fill="#353535"/>
<path d="M85.15 30.22C85.15 31.0887 85.4713 31.3912 86.36 31.3912H87.7013L87.91 32.8087C87.305 32.9787 86.2275 33.0587 85.7363 33.0587C84.1675 33.0587 83.3363 32.1325 83.3363 30.4687V25.0787H81.655V23.7562L83.3363 23.6625V20.9587H85.15V23.6625H88.0038V25.0787H85.15V30.22Z" fill="#353535"/>
<path d="M97.5849 26.4587V32.8849H96.1487L95.9412 31.4287C95.2612 32.1287 93.9412 33.0537 92.2562 33.0537C90.5712 33.0537 89.4399 32.1274 89.4399 30.4449V29.4812C89.4399 28.0074 90.3849 27.1749 92.0487 27.1749H95.7474V26.4574C95.7287 25.3237 95.3312 24.9649 93.9149 24.9649C93.0074 24.9649 91.4387 25.0774 90.0024 25.1912L89.8324 23.8499C91.1362 23.6224 93.0262 23.4149 94.3112 23.4149C96.4512 23.4162 97.5849 24.1349 97.5849 26.4587ZM91.2924 30.2199C91.2924 31.1262 91.7074 31.5049 92.6337 31.5049C93.4649 31.5049 94.6937 31.1462 95.7524 30.2012V28.5562H92.3887C91.5374 28.5937 91.2924 29.0287 91.2924 29.7287V30.2199Z" fill="#353535"/>
<path d="M102.178 30.22C102.178 30.995 102.594 31.3913 103.388 31.3913H104.238L104.445 32.8088C104.07 32.9788 103.16 33.0588 102.688 33.0588C101.27 33.0588 100.364 32.2075 100.364 30.6388V19.655H102.196L102.178 30.22Z" fill="#353535"/>
<path d="M113.479 30.3525C113.479 32.11 112.629 33.035 111.022 33.035C110.501 33.0214 109.982 32.9582 109.472 32.8463L109.605 31.9775H110.605C111.701 31.9775 112.23 31.4288 112.23 30.39V19.8438H113.48L113.479 30.3525Z" fill="#353535"/>
<path d="M122.096 24.625H121.643C120.509 24.625 119.488 25.1362 117.958 26.0237V32.885H116.748V23.7375H117.674L117.806 25.2687C119.205 24.1537 120.565 23.4912 121.85 23.4912H122.248L122.096 24.625Z" fill="#353535"/>
<path d="M123.854 30.8624C124.194 30.8624 124.326 30.9949 124.326 31.3349V32.4112C124.326 32.7524 124.194 32.8849 123.854 32.8849H123.437C123.116 32.8849 122.984 32.7524 122.984 32.4112V31.3349C122.984 30.9949 123.116 30.8624 123.437 30.8624H123.854Z" fill="#353535"/>
<mask id="mask0_252_2214" style="mask-type:alpha" maskUnits="userSpaceOnUse" x="0" y="0" width="40" height="39">
<path d="M19.778 3.84375L0 12.6239V8.78015L19.778 0V3.84375Z" fill="white"/>
<path d="M19.7781 3.84375L39.0698 12.6239V8.78015L19.7781 0V3.84375Z" fill="white"/>
<path d="M34.3294 14.7525L38.2915 12.9546L34.0538 11.0336L30.0901 12.8298L34.3294 14.7525Z" fill="white"/>
<path d="M24.6155 19.1571L28.5776 17.3593L24.3383 15.4382L20.3762 17.2345L24.6155 19.1571Z" fill="white"/>
<path d="M9.13524 12.8315L5.09209 11.032L0.771729 12.9547L4.81488 14.7525L9.13524 12.8315Z" fill="white"/>
<path d="M19.0373 17.236L14.9925 15.4365L10.6721 17.3592L14.7169 19.1587L19.0373 17.236Z" fill="white"/>
<path d="M19.778 12.6547L0 21.4332V17.5895L19.778 8.80933V12.6547Z" fill="white"/>
<path d="M19.7781 12.6547L39.0698 21.4332V17.5895L19.7781 8.80933V12.6547Z" fill="white"/>
<path d="M34.3294 23.5618L38.2915 21.7656L34.0522 19.8429L30.0901 21.6391L34.3294 23.5618Z" fill="white"/>
<path d="M24.3724 24.2476L19.7781 26.3453V30.1907L28.6279 26.1702L24.3724 24.2476Z" fill="white"/>
<path d="M10.7043 26.1685L19.7779 30.1906V26.3452L15.0425 24.2458L10.7043 26.1685Z" fill="white"/>
<path d="M9.13515 21.6408L5.09201 19.8413L0.77002 21.764L4.81479 23.5635L9.13515 21.6408Z" fill="white"/>
<path d="M19.778 21.464L0 30.2441V26.3988L19.778 17.6202V21.464Z" fill="white"/>
<path d="M19.7781 21.464L39.0698 30.2441V26.3988L19.7781 17.6202V21.464Z" fill="white"/>
<path d="M34.0863 28.6522L19.7781 35.1563V39L38.3402 30.5749L34.0863 28.6522Z" fill="white"/>
<path d="M0.804199 30.5733L19.7781 39V35.1563L5.14078 28.6522L0.804199 30.5733Z" fill="white"/>
</mask>
<g mask="url(#mask0_252_2214)">
<ellipse cx="38.9375" cy="39.625" rx="31.625" ry="31.4375" transform="rotate(-90 38.9375 39.625)" fill="url(#paint0_radial_252_2214)"/>
<ellipse cx="-0.187499" cy="39.375" rx="31.375" ry="30.8125" transform="rotate(-90 -0.187499 39.375)" fill="url(#paint1_radial_252_2214)"/>
<ellipse cx="17.75" cy="1.125" rx="34.125" ry="25.375" transform="rotate(-90 17.75 1.125)" fill="url(#paint2_radial_252_2214)"/>
</g>
<defs>
<radialGradient id="paint0_radial_252_2214" cx="0" cy="0" r="1" gradientUnits="userSpaceOnUse" gradientTransform="translate(38.9375 39.625) rotate(90) scale(29.4668 29.6425)">
<stop offset="0.5" stop-color="#44BBC3"/>
<stop offset="1" stop-color="#44BBC3" stop-opacity="0"/>
</radialGradient>
<radialGradient id="paint1_radial_252_2214" cx="0" cy="0" r="1" gradientUnits="userSpaceOnUse" gradientTransform="translate(-0.187493 39.375) rotate(90) scale(28.881 29.4082)">
<stop offset="0.489583" stop-color="#D8DA00"/>
<stop offset="1" stop-color="#D8DA00" stop-opacity="0"/>
</radialGradient>
<radialGradient id="paint2_radial_252_2214" cx="0" cy="0" r="1" gradientUnits="userSpaceOnUse" gradientTransform="translate(17.75 1.125) rotate(90) scale(23.7843 31.9858)">
<stop offset="0.489583" stop-color="#E94557"/>
<stop offset="1" stop-color="#E94557" stop-opacity="0"/>
</radialGradient>
</defs>
</svg>
